<svg width="702" height="702" viewBox="0 0 702 702" fill="none" xmlns="http://www.w3.org/2000/svg">
<path d="M131.952 393.882L36.425 411.76L50.7176 488.131L146.244 470.254L131.952 393.882Z" fill="#F5F5F5"/>
<path d="M131.976 393.906L131.513 394.019L130.109 394.285L124.928 395.296L105.37 399.045L36.504 412.102L36.7708 411.709C40.9828 434.44 45.9249 460.498 51.1056 488.073L50.6704 487.764L146.142 469.961L145.904 470.326C141.692 447.328 138.154 428.276 135.697 414.924C134.489 408.255 133.534 403.018 132.889 399.48C132.566 397.697 132.327 396.335 132.159 395.38C131.99 394.426 131.92 393.976 131.92 393.976C131.92 393.976 132.032 394.426 132.201 395.38L133.001 399.41C133.689 402.99 134.686 408.199 135.963 414.854C138.505 428.234 142.127 447.342 146.507 470.396L146.578 470.691L146.269 470.761L50.7406 488.592L50.3756 488.662L50.3054 488.283C45.1667 460.709 40.2948 434.65 36.0547 411.906V411.583L36.3917 411.512L105.525 398.736L125.026 395.17L130.179 394.243L131.485 394.019L131.976 393.906Z" fill="#E0E0E0"/>
<path d="M129.43 399.325L40.6109 415.947L53.1033 482.7L141.923 466.078L129.43 399.325Z" fill="#EBEBEB"/>
<path d="M53.0712 482.723L76.3355 435.423L100.4 457.788L110.846 441.474L141.888 466.114L53.0712 482.723Z" fill="#E0E0E0"/>
<path d="M102.759 425.23C103.018 426.613 102.861 428.042 102.307 429.337C101.754 430.631 100.83 431.732 99.6506 432.501C98.4716 433.27 97.091 433.672 95.6835 433.657C94.2759 433.641 92.9046 433.209 91.7428 432.414C90.581 431.619 89.681 430.498 89.1564 429.192C88.6319 427.885 88.5064 426.453 88.7959 425.075C89.0853 423.698 89.7767 422.437 90.7826 421.452C91.7885 420.468 93.0637 419.803 94.4471 419.543C95.3663 419.371 96.3104 419.381 97.2257 419.573C98.141 419.765 99.0094 420.136 99.7812 420.664C100.553 421.192 101.213 421.867 101.724 422.651C102.235 423.434 102.587 424.31 102.759 425.23Z" fill="#E0E0E0"/>
<path d="M275.076 73.9167L226.169 344.106L426.217 380.317L475.124 110.127L275.076 73.9167Z" fill="#FAFAFA"/>
<path d="M426.212 380.33C426.212 380.33 426.282 379.88 426.423 379.038L427.097 375.233C427.686 371.892 428.571 366.949 429.708 360.533C432.025 347.673 435.394 328.887 439.663 305.103L474.763 110.088L475.043 110.481L275.044 74.2997L275.479 73.9908C257.227 174.784 240.281 268.15 226.493 344.163L226.255 343.812L371.611 370.291L411.948 377.676L422.562 379.642C424.963 380.077 426.212 380.33 426.212 380.33L422.618 379.712L412.046 377.83L371.709 370.656L226.114 344.457H225.819V344.163C239.564 268.122 256.455 174.756 274.679 73.9627V73.5977H275.058L475.184 109.807L475.521 109.877V110.2C460.961 190.228 448.662 257.803 440.014 305.356L429.905 360.674C428.725 367.062 427.827 371.906 427.209 375.303C426.9 376.946 426.676 378.196 426.521 379.052L426.212 380.33Z" fill="#E0E0E0"/>
<path d="M376.912 117.845L291.974 102.47L278.58 176.466L363.518 191.84L376.912 117.845Z" fill="#E0E0E0"/>
<path d="M444.657 130.107L390.279 120.264L388.531 129.921L442.909 139.764L444.657 130.107Z" fill="#E0E0E0"/>
<path d="M432.119 219.832L276.915 191.739L275.167 201.396L430.371 229.489L432.119 219.832Z" fill="#E0E0E0"/>
<path d="M429.055 236.829L273.852 208.736L272.104 218.393L427.307 246.486L429.055 236.829Z" fill="#E0E0E0"/>
<path d="M425.98 253.827L270.777 225.733L269.029 235.39L424.232 263.484L425.98 253.827Z" fill="#E0E0E0"/>
<path d="M422.889 270.821L267.686 242.728L265.938 252.385L421.141 280.478L422.889 270.821Z" fill="#E0E0E0"/>
<path d="M419.814 287.805L264.61 259.712L262.862 269.369L418.066 297.462L419.814 287.805Z" fill="#E0E0E0"/>
<path d="M409.267 346.083L254.064 317.99L252.316 327.647L407.519 355.74L409.267 346.083Z" fill="#E0E0E0"/>
<path d="M346.745 292.138L261.545 276.716L259.797 286.373L344.997 301.795L346.745 292.138Z" fill="#E0E0E0"/>
<path d="M441.834 145.739L387.457 135.896L385.709 145.553L440.086 155.396L441.834 145.739Z" fill="#E0E0E0"/>
<path d="M436.945 161.568L382.789 151.621L381.022 161.239L435.178 171.186L436.945 161.568Z" fill="#E0E0E0"/>
<path d="M415.326 173.203L381.796 167.134L380.048 176.791L413.578 182.861L415.326 173.203Z" fill="#E0E0E0"/>
<path d="M516.672 72.671L499.417 73.373L497.55 78.2028C497.017 79.461 496.731 80.8099 496.707 82.1761C496.69 82.7802 496.841 83.3772 497.143 83.9004C497.446 84.4236 497.888 84.8523 498.42 85.1386C499.98 85.6359 501.614 85.8592 503.25 85.7984V87.2024L487.188 87.7921V86.3881C488.82 86.1055 490.306 85.2732 491.4 84.0294C493.062 81.7272 494.372 79.1911 495.289 76.504L511.056 36.8831H511.744L530.965 76.1951C532.837 79.9391 534.316 82.2791 535.401 83.2151C536.406 83.9887 537.643 84.3994 538.911 84.3804V85.7002L515.282 86.6549V85.3211H516.265C517.648 85.3856 519.022 85.0545 520.224 84.3664C520.48 84.1713 520.681 83.914 520.809 83.6191C520.936 83.3241 520.987 83.0014 520.954 82.6816C520.932 82.2308 520.842 81.7859 520.687 81.3618C520.687 81.1512 520.224 80.2526 519.494 78.7082L516.672 72.671ZM515.338 70.0596L507.392 53.5205L500.568 70.6493L515.338 70.0596Z" fill="#E0E0E0"/>
<path d="M549.346 174.687L470.431 201.046L491.506 264.141L570.421 237.782L549.346 174.687Z" fill="#F5F5F5"/>
<path d="M547.826 179.602L474.464 204.106L492.883 259.251L566.245 234.747L547.826 179.602Z" fill="#EBEBEB"/>
<path d="M492.888 259.277L507.069 216.441L530.094 232.587L537.03 217.522L566.247 234.777L492.888 259.277Z" fill="#E0E0E0"/>
<path d="M528.269 204.689C528.651 205.832 528.686 207.063 528.369 208.226C528.052 209.389 527.397 210.431 526.487 211.222C525.577 212.012 524.453 212.515 523.257 212.667C522.062 212.819 520.848 212.612 519.769 212.074C518.691 211.536 517.796 210.69 517.199 209.643C516.601 208.596 516.327 207.396 516.412 206.194C516.497 204.991 516.936 203.841 517.675 202.888C518.413 201.936 519.418 201.224 520.561 200.842C521.32 200.587 522.121 200.484 522.92 200.539C523.718 200.595 524.498 200.807 525.214 201.165C525.93 201.522 526.569 202.018 527.093 202.622C527.617 203.227 528.017 203.929 528.269 204.689Z" fill="#E0E0E0"/>
<path d="M551.537 101.311L532.22 199.949L655.591 224.109L674.907 125.47L551.537 101.311Z" fill="#F5F5F5"/>
<path d="M674.931 125.475L674.327 125.377L672.586 125.068L665.875 123.791L640.603 118.933L551.491 101.65L551.884 101.383C546.142 130.74 539.571 164.394 532.607 200.014L532.313 199.565L655.668 223.812L655.303 224.05C661.186 194.37 666.058 169.758 669.469 152.559C671.196 143.952 672.544 137.199 673.471 132.58C673.934 130.277 674.285 128.522 674.538 127.301C674.791 126.079 674.931 125.475 674.931 125.475C674.931 125.475 674.833 126.079 674.608 127.259C674.383 128.438 674.06 130.207 673.625 132.481C672.741 137.087 671.449 143.826 669.806 152.418C666.465 169.687 661.677 194.384 655.921 224.177L655.851 224.486H655.556L532.116 200.323L531.751 200.253L531.821 199.887C538.841 164.282 545.426 130.628 551.182 101.271L551.253 100.934L551.575 101.004L640.884 118.638L666.044 123.664L672.685 125.068L674.369 125.419L674.931 125.475Z" fill="#E0E0E0"/>
<path d="M554.588 108.356L537.705 194.567L652.409 217.029L669.292 130.819L554.588 108.356Z" fill="#EBEBEB"/>
<path d="M537.704 194.58L588.262 148.838L606.514 187.223L626.858 172.594L652.411 217.044L537.704 194.58Z" fill="#E0E0E0"/>
<path d="M624.906 149.189C624.559 150.978 623.688 152.623 622.405 153.917C621.122 155.21 619.484 156.094 617.699 156.457C615.913 156.82 614.06 156.645 612.374 155.954C610.688 155.263 609.245 154.088 608.227 152.577C607.209 151.066 606.662 149.286 606.655 147.464C606.649 145.642 607.183 143.859 608.19 142.341C609.197 140.822 610.632 139.637 612.313 138.934C613.994 138.231 615.846 138.042 617.634 138.392C618.821 138.623 619.951 139.085 620.959 139.752C621.967 140.42 622.834 141.28 623.509 142.282C624.185 143.285 624.656 144.411 624.896 145.597C625.135 146.782 625.139 148.002 624.906 149.189Z" fill="#E0E0E0"/>
<path d="M76.855 46.6268L83.2291 121.011L112.081 128.831L168.045 122.331L160.168 38.596L76.855 46.6268Z" fill="#F5F5F5"/>
<path d="M92.0322 114.328L83.2432 121.011C86.5839 123.907 90.49 126.078 94.7138 127.385C100.361 128.956 106.256 129.432 112.081 128.789C112.081 128.789 98.7574 126.528 92.0322 114.328Z" fill="#EBEBEB"/>
<path d="M153.429 65.988C153.429 66.1284 139.277 67.6026 121.797 69.3014C104.317 71.0003 90.1087 72.2639 90.0947 72.1094C90.0806 71.955 104.247 70.4527 121.741 68.796C139.235 67.1393 153.415 65.8055 153.429 65.988Z" fill="#E0E0E0"/>
<path d="M154.257 77.3885C154.257 77.5289 140.105 79.0171 122.625 80.716C105.146 82.4148 90.9371 83.6644 90.923 83.524C90.909 83.3836 105.075 81.8953 122.569 80.1965C140.063 78.4976 154.243 77.22 154.257 77.3885Z" fill="#E0E0E0"/>
<path d="M155.591 87.4832C155.591 87.6236 141.439 89.1119 123.959 90.7967C106.479 92.4815 92.2849 93.7591 92.2709 93.6047C92.2568 93.4502 106.409 91.9901 123.903 90.2912C141.397 88.5924 155.577 87.3428 155.591 87.4832Z" fill="#E0E0E0"/>
<path d="M156.476 97.241C156.476 97.3674 142.324 98.8556 124.83 100.554C107.336 102.253 93.1554 103.517 93.1414 103.362C93.1273 103.208 107.294 101.734 124.788 100.049C142.281 98.3642 156.462 97.1006 156.476 97.241Z" fill="#E0E0E0"/>
<path d="M680.084 645.699C680.084 645.896 532.102 646.065 349.61 646.065C167.118 646.065 19.1085 645.896 19.1085 645.699C19.1085 645.503 167.048 645.32 349.61 645.32C532.172 645.32 680.084 645.489 680.084 645.699Z" fill="#263238"/>
<path d="M58.8838 175.991L118.076 514.945L367.68 475.759L379.248 447.806L311.716 134.391L77.7536 148.347L58.8838 175.991Z" fill="#E0E0E0"/>
<path opacity="0.3" d="M118.076 514.945L135.809 487.778L76.6163 148.81L58.8838 175.991L118.076 514.945Z" fill="black"/>
<path d="M76.6163 148.81L135.809 487.778L379.248 447.806L317.739 114.426L76.6163 148.81Z" fill="#FAFAFA"/>
<path d="M76.6163 148.824L317.697 114.145H317.992V114.426C335.247 207.525 356.616 322.92 379.613 447.736L379.684 448.115L379.305 448.185L375.289 448.845L135.865 488.157H135.528V487.82C100.709 287.623 77.1358 151.8 76.6163 148.824C77.1358 151.815 100.99 287.581 136.146 487.722L135.753 487.455L375.163 448.143L379.178 447.483L378.869 447.918C355.872 323.088 334.615 207.694 317.444 114.524L317.781 114.763L76.6163 148.824Z" fill="#263238"/>
<path d="M271.8 309.337C274.818 286.623 258.852 265.763 236.138 262.745C213.425 259.726 192.565 275.692 189.546 298.406C186.528 321.119 202.494 341.979 225.207 344.998C247.921 348.016 268.781 332.05 271.8 309.337Z" fill="#FF725E"/>
<path d="M211.639 314.749L209.758 302.801L251.133 296.244L252.903 307.476C252.903 307.476 250.375 317.136 233.64 319.775C216.904 322.415 211.639 314.749 211.639 314.749Z" fill="white"/>
<path d="M203.229 302.871L232.755 308.122L258.364 293.717L228.796 289.041L203.229 302.871Z" fill="white"/>
<path d="M285.84 186.975L139.131 210.159C137.331 210.443 136.103 212.133 136.387 213.933L136.882 217.067C137.167 218.867 138.856 220.095 140.656 219.811L287.365 196.627C289.165 196.342 290.393 194.653 290.109 192.853L289.614 189.719C289.329 187.919 287.64 186.69 285.84 186.975Z" fill="#E0E0E0"/>
<path d="M262.63 211.378L169.59 226.081C167.79 226.366 166.561 228.055 166.846 229.855L167.341 232.989C167.625 234.789 169.315 236.018 171.115 235.733L264.155 221.03C265.955 220.746 267.183 219.056 266.899 217.256L266.403 214.122C266.119 212.322 264.429 211.094 262.63 211.378Z" fill="#E0E0E0"/>
<path d="M296.142 419.353L203.102 434.056C201.302 434.34 200.074 436.03 200.358 437.83L200.853 440.964C201.138 442.764 202.827 443.992 204.627 443.708L297.667 429.005C299.467 428.721 300.695 427.031 300.411 425.231L299.916 422.097C299.631 420.297 297.942 419.069 296.142 419.353Z" fill="#E0E0E0"/>
<path d="M366.711 457.227L365.531 457.451L362.049 458.055L348.585 460.301L298.589 468.501L129.687 495.949L129.322 496.019V495.654C126.964 482.246 124.479 468.206 121.951 453.899C108.361 377.03 96.1178 307.476 87.2586 257.086C82.8641 231.899 79.3119 211.527 76.8409 197.43C75.6335 190.41 74.6928 184.921 74.0329 181.2C73.724 179.347 73.4853 177.943 73.3169 176.988C73.1484 176.034 73.1063 175.584 73.1063 175.584C73.1063 175.584 73.2186 176.076 73.4011 176.988C73.5836 177.901 73.8363 179.361 74.1733 181.2C74.8472 184.921 75.83 190.382 77.1077 197.402C79.6208 211.442 83.2572 231.857 87.75 257.016C96.6654 307.392 108.993 376.946 122.597 453.801C125.124 468.094 127.596 482.148 129.968 495.556L129.533 495.247L298.49 468.037L348.515 460.063L361.993 457.943L365.489 457.409L366.711 457.227Z" fill="#263238"/>
<path d="M348.192 469.975L347.083 470.2L343.798 470.775L331.077 472.937L283.791 480.828L123.313 507.392H122.948V507.041L113.724 456.96C99.9789 381.144 87.5394 312.558 78.5258 262.885C74.061 238.062 70.4387 217.957 67.9396 204.057C66.7181 197.122 65.7494 191.73 65.1316 188.052C64.8227 186.241 64.57 184.851 64.4156 183.84C64.2611 182.829 64.1909 182.436 64.1909 182.436C64.1909 182.436 64.3032 182.899 64.4858 183.84L65.286 188.052C65.96 191.716 66.9708 197.094 68.2625 204.015L79.0733 262.801C88.1432 312.474 100.667 381.06 114.496 456.834C117.613 474.004 120.674 490.81 123.608 506.97L123.187 506.676L283.678 480.365L330.993 472.685L343.727 470.649L347.027 470.143L348.192 469.975Z" fill="#263238"/>
<path d="M82.499 292.355L77.0094 300.105L90.3334 379.979L98.266 382.674L82.499 292.355Z" fill="#263238"/>
<path d="M120.517 285.703L82.5112 292.343L98.2896 382.657L136.296 376.017L120.517 285.703Z" fill="#263238"/>
<path d="M121.729 282.201L119.253 282.633C117.84 282.88 116.894 284.225 117.141 285.638L133.106 377.116C133.353 378.529 134.699 379.475 136.112 379.228L138.587 378.796C140.001 378.55 140.946 377.204 140.7 375.791L124.734 284.313C124.488 282.9 123.142 281.954 121.729 282.201Z" fill="#263238"/>
<path d="M75.9283 357.697C71.7169 357.68 67.6539 356.14 64.4899 353.36C61.3259 350.581 59.2747 346.75 58.7153 342.576C58.2325 339.01 58.8666 335.382 60.5304 332.191C62.1943 329 64.806 326.403 68.0064 324.757C71.2068 323.112 74.8385 322.498 78.4018 323.002C81.9651 323.505 85.2849 325.1 87.9045 327.567L111.632 314.089C112.086 313.831 112.596 313.687 113.117 313.667C113.639 313.648 114.158 313.754 114.63 313.977C115.102 314.2 115.514 314.533 115.83 314.948C116.146 315.364 116.358 315.849 116.448 316.363L122.064 348.501C122.156 349.012 122.124 349.538 121.971 350.035C121.818 350.531 121.547 350.984 121.183 351.354C120.818 351.724 120.37 352.001 119.876 352.162C119.381 352.323 118.856 352.362 118.343 352.278L91.5548 348.066C90.1046 350.968 87.8743 353.41 85.1142 355.116C82.3541 356.822 79.1732 357.726 75.9283 357.725V357.697ZM75.9283 325.672C75.2233 325.667 74.5191 325.719 73.8223 325.826C70.0453 326.44 66.6508 328.488 64.3465 331.543C62.0421 334.598 61.0057 338.425 61.4531 342.225C61.8784 345.403 63.338 348.353 65.6067 350.619C67.8753 352.885 70.8268 354.341 74.0054 354.763C77.1841 355.185 80.4132 354.548 83.1942 352.952C85.9752 351.356 88.1534 348.889 89.3927 345.932L89.8139 344.921L118.792 349.596C118.861 349.611 118.933 349.607 118.999 349.585C119.066 349.562 119.125 349.523 119.172 349.47C119.221 349.421 119.259 349.361 119.281 349.295C119.303 349.23 119.309 349.159 119.298 349.091L113.682 316.939C113.668 316.869 113.638 316.803 113.595 316.747C113.551 316.691 113.494 316.646 113.429 316.616C113.366 316.584 113.296 316.567 113.226 316.567C113.155 316.567 113.085 316.584 113.022 316.616L87.399 331.105L86.6408 330.305C85.2683 328.855 83.6136 327.701 81.7787 326.914C79.9437 326.127 77.9671 325.723 75.9704 325.728L75.9283 325.672Z" fill="#455A64"/>
<path d="M132.931 375.921C132.837 375.628 132.772 375.327 132.734 375.022C132.608 374.348 132.453 373.492 132.243 372.439C131.822 370.094 131.232 366.823 130.502 362.892C129.098 354.763 127.076 343.671 124.886 331.414C122.696 319.157 120.828 308.038 119.424 299.88C118.764 295.921 118.231 292.678 117.852 290.319C117.683 289.252 117.557 288.382 117.459 287.708C117.393 287.408 117.365 287.102 117.374 286.795C117.47 287.084 117.545 287.38 117.599 287.68C117.739 288.353 117.922 289.21 118.133 290.263C118.582 292.608 119.2 295.879 119.944 299.796C121.446 307.841 123.454 318.975 125.56 331.274C127.666 343.573 129.631 354.735 130.951 362.808C131.625 366.851 132.13 370.122 132.467 372.383C132.622 373.52 132.762 374.391 132.818 375.008C132.893 375.307 132.931 375.613 132.931 375.921Z" fill="#455A64"/>
<path d="M97.5078 382.983C97.4245 382.683 97.3589 382.378 97.3112 382.071C97.1849 381.411 97.0304 380.554 96.8339 379.487C96.3986 377.142 95.8089 373.871 95.0789 369.954C93.6749 361.811 91.6531 350.719 89.4629 338.462C87.2726 326.205 85.4193 315.086 84.0013 306.942C83.3414 302.969 82.8079 299.726 82.4288 297.381C82.2603 296.3 82.134 295.444 82.0357 294.77C81.9698 294.466 81.9415 294.154 81.9515 293.843C82.0579 294.135 82.1377 294.436 82.1901 294.742C82.3165 295.416 82.499 296.272 82.7096 297.325C83.1589 299.67 83.7767 302.941 84.5208 306.844C86.0231 314.903 88.0308 326.023 90.1368 338.336C92.2428 350.649 94.2084 361.783 95.5422 369.856C96.2021 373.899 96.7215 377.171 97.0445 379.445C97.1989 380.582 97.3393 381.453 97.3955 382.056C97.4704 382.36 97.5081 382.671 97.5078 382.983Z" fill="#455A64"/>
<path d="M258.336 293.717C257.725 294.184 257.077 294.602 256.398 294.966L250.979 298.153C246.374 300.821 239.986 304.457 232.91 308.445L232.783 308.515H232.657H232.362C224.289 307.111 216.918 305.707 211.723 304.738L205.475 303.517C204.702 303.398 203.941 303.21 203.201 302.955C203.983 302.99 204.762 303.079 205.532 303.222L211.807 304.219C217.115 305.089 224.443 306.353 232.502 307.785H232.783H232.53C239.621 303.812 246.051 300.245 250.782 297.69L256.328 294.714C256.965 294.32 257.637 293.986 258.336 293.717Z" fill="#263238"/>
<path d="M185.743 181.439L184.002 170.67L186.279 170.302L187.047 175.05L187.189 175.027L190.297 169.653L193.026 169.212L189.809 174.68L194.814 179.973L192.09 180.414L188.424 176.463L187.525 178.011L188.02 181.071L185.743 181.439ZM196.489 168.652L198.229 179.421L195.952 179.789L194.212 169.02L196.489 168.652ZM198.255 170.293L197.952 168.416L206.796 166.986L207.1 168.863L203.803 169.396L205.24 178.288L202.989 178.652L201.552 169.76L198.255 170.293ZM210.534 177.433L208.094 177.827L210.071 166.457L213.005 165.983L218.458 176.152L216.018 176.546L211.978 168.674L211.894 168.688L210.534 177.433ZM209.697 173.224L215.461 172.293L215.748 174.07L209.984 175.002L209.697 173.224ZM219.755 175.943L218.014 165.173L222.263 164.486C223.08 164.354 223.801 164.398 224.426 164.617C225.051 164.833 225.559 165.191 225.949 165.693C226.342 166.191 226.597 166.797 226.712 167.512C226.828 168.227 226.776 168.883 226.556 169.48C226.336 170.077 225.957 170.575 225.421 170.974C224.889 171.373 224.209 171.64 223.381 171.774L220.673 172.211L220.378 170.387L222.718 170.008C223.157 169.938 223.505 169.804 223.765 169.607C224.028 169.406 224.207 169.16 224.304 168.867C224.403 168.571 224.424 168.245 224.367 167.891C224.309 167.534 224.187 167.233 224 166.99C223.816 166.743 223.569 166.569 223.258 166.468C222.946 166.364 222.569 166.347 222.127 166.419L220.592 166.667L222.032 175.575L219.755 175.943ZM188.054 191.427C187.944 191.009 187.71 190.709 187.353 190.526C186.996 190.342 186.544 190.295 185.997 190.383C185.626 190.443 185.32 190.547 185.081 190.693C184.842 190.836 184.669 191.01 184.561 191.214C184.458 191.418 184.424 191.636 184.462 191.867C184.486 192.061 184.553 192.223 184.664 192.352C184.779 192.481 184.923 192.586 185.098 192.665C185.272 192.742 185.469 192.802 185.688 192.845C185.907 192.885 186.138 192.913 186.381 192.927L187.386 193.002C187.873 193.032 188.327 193.102 188.748 193.214C189.169 193.326 189.544 193.487 189.873 193.696C190.201 193.905 190.473 194.171 190.687 194.493C190.904 194.814 191.051 195.198 191.127 195.646C191.23 196.306 191.154 196.905 190.899 197.442C190.647 197.976 190.231 198.426 189.65 198.793C189.072 199.157 188.344 199.409 187.468 199.551C186.599 199.691 185.82 199.68 185.132 199.518C184.447 199.355 183.882 199.042 183.437 198.578C182.994 198.11 182.701 197.49 182.559 196.718L184.762 196.362C184.845 196.719 184.997 197.004 185.218 197.216C185.443 197.425 185.719 197.565 186.047 197.638C186.379 197.707 186.741 197.709 187.133 197.646C187.519 197.584 187.844 197.474 188.11 197.315C188.38 197.157 188.577 196.965 188.703 196.74C188.828 196.514 188.87 196.272 188.828 196.012C188.789 195.771 188.684 195.579 188.514 195.437C188.347 195.295 188.117 195.188 187.825 195.117C187.537 195.045 187.188 194.993 186.78 194.962L185.56 194.857C184.616 194.783 183.844 194.553 183.242 194.169C182.64 193.784 182.277 193.193 182.152 192.397C182.043 191.746 182.124 191.148 182.396 190.604C182.671 190.059 183.095 189.601 183.668 189.227C184.241 188.854 184.92 188.604 185.705 188.477C186.505 188.348 187.224 188.372 187.864 188.549C188.508 188.726 189.036 189.031 189.448 189.464C189.859 189.898 190.122 190.434 190.237 191.074L188.054 191.427ZM202.182 191.491C202.371 192.665 202.31 193.7 201.998 194.596C201.69 195.491 201.188 196.218 200.494 196.776C199.803 197.33 198.983 197.684 198.033 197.838C197.076 197.992 196.182 197.914 195.351 197.602C194.52 197.29 193.817 196.758 193.242 196.006C192.667 195.253 192.285 194.292 192.096 193.121C191.906 191.946 191.965 190.912 192.274 190.016C192.582 189.121 193.082 188.397 193.773 187.842C194.464 187.285 195.288 186.929 196.245 186.774C197.195 186.62 198.085 186.7 198.916 187.011C199.75 187.319 200.454 187.849 201.029 188.601C201.608 189.353 201.992 190.316 202.182 191.491ZM199.873 191.864C199.75 191.103 199.532 190.48 199.22 189.995C198.911 189.509 198.53 189.164 198.076 188.96C197.623 188.756 197.12 188.699 196.57 188.788C196.02 188.877 195.561 189.089 195.195 189.426C194.828 189.762 194.573 190.21 194.43 190.769C194.29 191.327 194.281 191.987 194.404 192.748C194.527 193.509 194.743 194.132 195.052 194.618C195.364 195.104 195.747 195.448 196.201 195.652C196.655 195.855 197.157 195.913 197.707 195.824C198.258 195.735 198.716 195.522 199.083 195.186C199.449 194.85 199.702 194.402 199.842 193.844C199.986 193.285 199.996 192.625 199.873 191.864ZM204.738 196.603L202.998 185.834L207.247 185.147C208.06 185.015 208.778 185.049 209.4 185.247C210.025 185.441 210.53 185.778 210.918 186.259C211.308 186.735 211.56 187.329 211.675 188.041C211.791 188.756 211.736 189.396 211.511 189.962C211.285 190.523 210.901 190.988 210.36 191.356C209.822 191.724 209.14 191.974 208.312 192.108L205.468 192.568L205.172 190.738L207.649 190.337C208.083 190.267 208.435 190.149 208.703 189.984C208.971 189.818 209.156 189.605 209.258 189.344C209.363 189.082 209.387 188.774 209.33 188.42C209.272 188.062 209.151 187.773 208.968 187.55C208.788 187.328 208.542 187.177 208.231 187.098C207.923 187.014 207.549 187.008 207.111 187.079L205.576 187.327L207.015 196.235L204.738 196.603ZM209.762 190.762L213.231 195.23L210.717 195.637L207.307 191.159L209.762 190.762ZM214.456 195.032L212.716 184.263L219.972 183.09L220.276 184.968L215.296 185.772L215.711 188.338L220.317 187.594L220.62 189.471L216.014 190.216L216.43 192.787L221.43 191.979L221.734 193.856L214.456 195.032ZM228.125 184.951C228.015 184.533 227.781 184.233 227.424 184.05C227.067 183.866 226.615 183.819 226.068 183.907C225.696 183.967 225.391 184.071 225.152 184.217C224.913 184.36 224.739 184.534 224.632 184.738C224.528 184.942 224.495 185.16 224.533 185.391C224.557 185.585 224.624 185.747 224.735 185.876C224.85 186.005 224.994 186.11 225.169 186.189C225.343 186.266 225.54 186.325 225.759 186.369C225.978 186.409 226.209 186.437 226.452 186.451L227.457 186.526C227.944 186.556 228.398 186.626 228.819 186.738C229.24 186.85 229.615 187.01 229.943 187.22C230.272 187.429 230.544 187.695 230.757 188.016C230.975 188.337 231.121 188.722 231.197 189.17C231.3 189.83 231.225 190.428 230.97 190.966C230.718 191.5 230.301 191.95 229.72 192.317C229.142 192.68 228.415 192.933 227.539 193.075C226.669 193.215 225.891 193.204 225.203 193.042C224.518 192.879 223.953 192.566 223.507 192.102C223.065 191.634 222.772 191.014 222.629 190.242L224.833 189.886C224.916 190.243 225.068 190.528 225.289 190.74C225.514 190.949 225.79 191.089 226.118 191.162C226.449 191.231 226.811 191.233 227.204 191.17C227.59 191.108 227.915 190.997 228.181 190.839C228.451 190.681 228.648 190.489 228.773 190.263C228.899 190.038 228.941 189.796 228.899 189.536C228.86 189.294 228.755 189.103 228.585 188.961C228.418 188.819 228.188 188.712 227.896 188.641C227.607 188.569 227.259 188.517 226.851 188.486L225.631 188.381C224.687 188.307 223.915 188.077 223.313 187.693C222.711 187.308 222.348 186.717 222.222 185.921C222.114 185.269 222.195 184.672 222.467 184.128C222.742 183.583 223.166 183.124 223.739 182.751C224.312 182.378 224.991 182.128 225.776 182.001C226.575 181.872 227.295 181.896 227.935 182.073C228.579 182.25 229.107 182.555 229.518 182.988C229.93 183.422 230.193 183.958 230.307 184.598L228.125 184.951ZM233.763 180.862L235.503 191.631L233.226 191.999L231.486 181.23L233.763 180.862Z" fill="#263238"/>
<path d="M279.649 457.409H399.354V520.224H279.649C273.077 520.224 266.774 517.613 262.126 512.966C257.479 508.319 254.868 502.016 254.868 495.444V482.176C254.868 475.604 257.479 469.3 262.126 464.653C266.774 460.006 273.077 457.395 279.649 457.395V457.409Z" fill="#FF725E"/>
<path d="M368.059 457.409H620.568C621.659 457.409 622.705 457.843 623.477 458.614C624.248 459.386 624.682 460.432 624.682 461.523V463.727C624.682 464.818 624.248 465.865 623.477 466.636C622.705 467.407 621.659 467.841 620.568 467.841H368.059V457.409Z" fill="#FF725E"/>
<path d="M368.059 509.806H620.568C621.108 509.806 621.643 509.913 622.142 510.12C622.641 510.326 623.095 510.629 623.477 511.011C623.859 511.393 624.162 511.847 624.369 512.346C624.575 512.845 624.682 513.38 624.682 513.92V516.124C624.682 517.215 624.248 518.262 623.477 519.033C622.705 519.805 621.659 520.238 620.568 520.238H368.059V509.806Z" fill="#FF725E"/>
<path d="M617.002 509.806H396.7C393.944 509.806 391.216 509.263 388.67 508.208C386.124 507.153 383.811 505.607 381.863 503.658C379.915 501.709 378.37 499.395 377.317 496.848C376.264 494.302 375.723 491.572 375.724 488.817C375.724 483.254 377.934 477.918 381.868 473.985C385.802 470.051 391.137 467.841 396.7 467.841H617.002C614.083 474.451 612.576 481.598 612.576 488.824C612.576 496.05 614.083 503.196 617.002 509.806Z" fill="#F5F5F5"/>
<path opacity="0.3" d="M375.724 520.238H280.14C273.438 520.238 267.01 517.576 262.27 512.836C257.531 508.097 254.868 501.669 254.868 494.966V482.485C254.868 475.834 257.51 469.456 262.213 464.754C266.915 460.051 273.293 457.409 279.944 457.409H378.097C355.366 471.196 357.065 504.19 375.724 520.238Z" fill="black"/>
<path d="M590.242 490.768C590.242 490.979 545.019 491.147 489.252 491.147C433.485 491.147 388.262 490.979 388.262 490.768C388.262 490.558 433.471 490.389 489.252 490.389C545.033 490.389 590.242 490.558 590.242 490.768Z" fill="#263238"/>
<path d="M611.021 500.091C611.021 500.301 565.798 500.47 510.031 500.47C454.264 500.47 409.041 500.301 409.041 500.091C409.041 499.88 454.25 499.726 510.031 499.726C565.812 499.726 611.021 499.894 611.021 500.091Z" fill="#263238"/>
<path d="M604.899 477.543C604.899 477.753 559.677 477.922 503.91 477.922C448.143 477.922 402.906 477.753 402.906 477.543C402.906 477.332 448.115 477.163 503.91 477.163C559.705 477.163 604.899 477.36 604.899 477.543Z" fill="#263238"/>
<path d="M364.661 515.83C364.661 516.04 343.489 516.209 317.388 516.209C291.288 516.209 270.116 516.04 270.116 515.83C270.116 515.619 291.274 515.451 317.388 515.451C343.503 515.451 364.661 515.619 364.661 515.83Z" fill="#263238"/>
<path d="M364.661 462.632C364.661 462.843 343.489 463.011 317.388 463.011C291.288 463.011 270.116 462.843 270.116 462.632C270.116 462.421 291.274 462.253 317.388 462.253C343.503 462.253 364.661 462.421 364.661 462.632Z" fill="#263238"/>
<path d="M226.802 564.324H388.108V645.222H226.802C220.23 645.222 213.927 642.611 209.28 637.964C204.632 633.317 202.022 627.014 202.022 620.442V589.104C202.022 582.532 204.632 576.229 209.28 571.582C213.927 566.935 220.23 564.324 226.802 564.324Z" fill="#FF725E"/>
<path d="M347.799 564.324H674.131C675.222 564.324 676.268 564.757 677.039 565.529C677.811 566.3 678.244 567.346 678.244 568.438V573.646C678.244 574.737 677.811 575.784 677.039 576.555C676.268 577.327 675.222 577.76 674.131 577.76H347.799V564.324Z" fill="#FF725E"/>
<path d="M347.799 631.8H674.131C675.222 631.8 676.268 632.233 677.039 633.005C677.811 633.776 678.244 634.823 678.244 635.914V641.123C678.244 642.214 677.811 643.26 677.039 644.031C676.268 644.803 675.222 645.236 674.131 645.236H347.799V631.8Z" fill="#FF725E"/>
<path d="M668.388 631.8H384.696C377.53 631.796 370.66 628.947 365.594 623.879C360.529 618.811 357.683 611.939 357.683 604.773C357.683 601.226 358.382 597.713 359.739 594.436C361.097 591.158 363.087 588.18 365.595 585.672C368.103 583.164 371.081 581.174 374.359 579.816C377.636 578.459 381.149 577.76 384.696 577.76H668.388C664.625 586.271 662.681 595.474 662.681 604.78C662.681 614.086 664.625 623.289 668.388 631.8Z" fill="#F5F5F5"/>
<path opacity="0.3" d="M357.655 645.222H226.479C223.268 645.222 220.088 644.59 217.122 643.36C214.155 642.131 211.46 640.329 209.19 638.058C206.92 635.787 205.12 633.09 203.892 630.123C202.665 627.156 202.034 623.976 202.036 620.765V589.68C202.036 582.977 204.698 576.549 209.438 571.81C214.177 567.071 220.605 564.408 227.308 564.408H360.688C331.442 582.07 333.633 624.569 357.655 645.222Z" fill="black"/>
<path d="M633.92 607.286C633.92 607.497 575.682 607.665 503.867 607.665C432.053 607.665 373.801 607.497 373.801 607.286C373.801 607.076 432.025 606.907 503.867 606.907C575.71 606.907 633.92 607.076 633.92 607.286Z" fill="#263238"/>
<path d="M660.694 619.29C660.694 619.501 602.456 619.669 530.628 619.669C458.799 619.669 400.561 619.501 400.561 619.29C400.561 619.08 458.785 618.925 530.628 618.925C602.47 618.925 660.694 619.164 660.694 619.29Z" fill="#263238"/>
<path d="M652.86 596.138C652.86 596.349 594.636 596.517 522.808 596.517C450.979 596.517 392.741 596.349 392.741 596.138C392.741 595.928 450.965 595.759 522.808 595.759C594.65 595.759 652.86 595.928 652.86 596.138Z" fill="#263238"/>
<path d="M343.404 639.55C343.404 639.761 316.153 639.929 282.527 639.929C248.901 639.929 221.649 639.761 221.649 639.55C221.649 639.339 248.901 639.185 282.527 639.185C316.153 639.185 343.404 639.354 343.404 639.55Z" fill="#263238"/>
<path d="M343.404 571.049C343.404 571.245 316.153 571.414 282.527 571.414C248.901 571.414 221.649 571.245 221.649 571.049C221.649 570.852 248.901 570.67 282.527 570.67C316.153 570.67 343.404 570.838 343.404 571.049Z" fill="#263238"/>
<path d="M303.517 518.301H436.419V564.633H303.517C298.676 564.633 294.033 562.71 290.611 559.287C287.188 555.864 285.265 551.221 285.265 546.381V536.553C285.265 531.712 287.188 527.069 290.611 523.647C294.033 520.224 298.676 518.301 303.517 518.301Z" fill="#455A64"/>
<path d="M403.678 518.301H667.855C668.998 518.301 670.094 518.755 670.903 519.563C671.711 520.371 672.165 521.468 672.165 522.611V524.913C672.165 526.057 671.711 527.153 670.903 527.961C670.094 528.77 668.998 529.224 667.855 529.224H403.678V518.315V518.301Z" fill="#455A64"/>
<path d="M403.678 553.71H667.855C668.998 553.71 670.094 554.164 670.903 554.972C671.711 555.78 672.165 556.877 672.165 558.02V560.322C672.165 561.466 671.711 562.562 670.903 563.37C670.094 564.179 668.998 564.633 667.855 564.633H403.678V553.724V553.71Z" fill="#455A64"/>
<path d="M664.092 553.71H424.008C420.76 553.71 417.644 552.42 415.346 550.125C413.048 547.829 411.755 544.715 411.751 541.467C411.751 538.216 413.042 535.098 415.341 532.8C417.64 530.501 420.757 529.21 424.008 529.21H664.092C657.952 537.381 657.952 545.548 664.092 553.71Z" fill="#F5F5F5"/>
<path opacity="0.3" d="M411.681 564.619H303.573C301.158 564.619 298.767 564.143 296.536 563.218C294.306 562.294 292.279 560.939 290.572 559.231C288.866 557.523 287.512 555.495 286.589 553.264C285.667 551.032 285.193 548.641 285.194 546.226V537.072C285.193 534.608 285.676 532.167 286.618 529.89C287.56 527.612 288.941 525.543 290.683 523.8C292.425 522.056 294.494 520.673 296.771 519.73C299.047 518.786 301.487 518.301 303.952 518.301H414.18C390.382 528.466 392.165 552.797 411.681 564.619Z" fill="black"/>
<path d="M636.138 539.529C636.138 539.74 588.824 539.908 530.473 539.908C472.123 539.908 424.808 539.74 424.808 539.529C424.808 539.319 472.109 539.164 530.473 539.164C588.838 539.164 636.138 539.333 636.138 539.529Z" fill="#263238"/>
<path d="M657.886 546.156C657.886 546.367 610.572 546.535 552.221 546.535C493.871 546.535 446.556 546.367 446.556 546.156C446.556 545.945 493.857 545.777 552.221 545.777C610.586 545.777 657.886 545.917 657.886 546.156Z" fill="#263238"/>
<path d="M400.14 560.013C400.14 560.224 377.999 560.393 350.677 560.393C323.355 560.393 301.214 560.224 301.214 560.013C301.214 559.803 323.355 559.634 350.677 559.634C377.999 559.634 400.14 559.803 400.14 560.013Z" fill="#263238"/>
<path d="M400.14 523.762C400.14 523.973 377.999 524.127 350.677 524.127C323.355 524.127 301.214 523.973 301.214 523.762C301.214 523.552 323.355 523.383 350.677 523.383C377.999 523.383 400.14 523.552 400.14 523.762Z" fill="#263238"/>
<path d="M669.006 518.301C669.006 518.511 587.757 518.68 487.567 518.68C387.378 518.68 306.072 518.511 306.072 518.301C306.072 518.09 387.293 517.922 487.525 517.922C587.757 517.922 669.006 518.076 669.006 518.301Z" fill="#263238"/>
<path d="M523.313 476.855V502.014L532.032 496.426L541.747 502.014V476.855H523.313Z" fill="#FF725E"/>
<path d="M611.919 227.125L568.016 263.699L501.242 395.619L542.871 414.433L607.82 285.054L611.919 227.125Z" fill="#FF725E"/>
<g opacity="0.7">
<path d="M607.82 285.012C607.311 285.138 606.78 285.144 606.268 285.031C605.757 284.917 605.278 284.687 604.871 284.358C604.463 284.029 604.137 283.61 603.917 283.134C603.698 282.658 603.592 282.138 603.608 281.614C602.223 283.226 600.367 284.364 598.302 284.867C596.237 285.37 594.066 285.213 592.095 284.418C590.124 283.623 588.452 282.23 587.313 280.435C586.175 278.64 585.628 276.534 585.749 274.412C583.899 275.408 581.817 275.894 579.717 275.821C577.617 275.747 575.574 275.116 573.798 273.993C572.022 272.87 570.577 271.295 569.61 269.43C568.644 267.564 568.19 265.475 568.297 263.376L611.821 227.083L607.82 285.012Z" fill="white"/>
</g>
<path d="M594.257 241.839C594.257 241.839 594.931 252.762 610.235 250.853L611.919 227.125L594.257 241.839Z" fill="#FF725E"/>
<path opacity="0.3" d="M585.805 274.454L521.432 404.029L501.242 395.605L568.016 263.629L568.353 263.348C568.253 265.108 568.561 266.866 569.252 268.487C570.174 270.615 571.671 272.443 573.576 273.766C575.914 275.363 578.753 276.057 581.565 275.718C583.043 275.558 584.48 275.13 585.805 274.454Z" fill="black"/>
<path opacity="0.3" d="M603.72 281.656L537.592 412.018L542.927 414.433L607.82 285.012C606.939 285.172 606.031 284.999 605.27 284.527C604.51 284.055 603.953 283.317 603.706 282.457C603.684 282.19 603.689 281.922 603.72 281.656Z" fill="black"/>
<path d="M585.468 261.874C585.33 262.035 585.251 262.238 585.243 262.45C585.246 262.756 585.362 263.051 585.569 263.277C585.777 263.503 586.061 263.643 586.367 263.671C587.362 263.715 588.346 263.44 589.175 262.885C589.698 262.578 590.115 262.117 590.368 261.565C590.508 261.266 590.569 260.937 590.547 260.608C590.525 260.279 590.42 259.961 590.242 259.684C590.01 259.397 589.72 259.162 589.391 258.995C589.062 258.828 588.701 258.732 588.332 258.715C587.52 258.644 586.702 258.691 585.903 258.855C584.116 259.153 582.409 259.818 580.891 260.807C580.485 261.056 580.138 261.39 579.871 261.784C579.605 262.179 579.426 262.626 579.347 263.096C579.325 263.587 579.426 264.076 579.639 264.519C579.852 264.962 580.171 265.346 580.568 265.637C581.491 266.167 582.51 266.507 583.566 266.638C584.622 266.768 585.694 266.685 586.718 266.395C588.749 265.968 590.624 264.99 592.137 263.569C593.65 262.147 594.743 260.337 595.296 258.336C595.39 257.893 595.381 257.435 595.269 256.997C595.157 256.558 594.945 256.152 594.65 255.809C594.055 255.172 593.312 254.69 592.488 254.405C591.005 253.861 589.447 253.549 587.869 253.478C585.568 253.357 583.266 253.701 581.102 254.489C580.343 254.77 579.698 255.037 579.375 255.219C579.052 255.402 578.785 255.5 578.785 255.5C579.503 255.045 580.265 254.664 581.059 254.363C583.23 253.532 585.547 253.155 587.869 253.254C589.478 253.308 591.07 253.611 592.586 254.152C593.453 254.45 594.234 254.957 594.861 255.626C595.191 256.006 595.429 256.457 595.556 256.945C595.682 257.432 595.694 257.942 595.591 258.434C594.866 261.04 593.262 263.315 591.051 264.873C588.84 266.432 586.158 267.178 583.46 266.985C582.355 266.927 581.289 266.557 580.385 265.918C579.934 265.606 579.568 265.185 579.323 264.694C579.077 264.203 578.96 263.658 578.981 263.11C579.068 262.597 579.263 262.109 579.554 261.678C579.844 261.247 580.224 260.883 580.666 260.61C582.223 259.601 583.973 258.927 585.805 258.631C586.633 258.475 587.479 258.437 588.318 258.519C588.717 258.542 589.106 258.651 589.46 258.838C589.813 259.024 590.123 259.284 590.368 259.6C590.562 259.91 590.675 260.264 590.698 260.629C590.72 260.995 590.65 261.36 590.494 261.692C590.222 262.279 589.776 262.77 589.217 263.096C588.362 263.646 587.353 263.907 586.338 263.84C586.01 263.808 585.705 263.652 585.486 263.405C585.267 263.157 585.15 262.836 585.159 262.506C585.229 261.986 585.468 261.86 585.468 261.874Z" fill="white"/>
<path d="M609.027 261.144C609.027 261.144 608.381 261.046 607.23 261.144C605.59 261.252 603.987 261.681 602.513 262.408C600.343 263.52 598.308 264.877 596.447 266.451C594.182 268.445 591.601 270.049 588.809 271.197C585.931 272.186 582.825 272.304 579.88 271.534C577.482 270.901 575.278 269.685 573.464 267.996C572.235 266.83 571.214 265.462 570.445 263.952C570.153 263.423 569.909 262.868 569.715 262.295C569.795 262.426 569.866 262.562 569.926 262.702C570.052 262.983 570.263 263.39 570.543 263.896C571.366 265.315 572.403 266.599 573.618 267.701C575.419 269.34 577.593 270.516 579.95 271.126C582.845 271.854 585.887 271.727 588.711 270.761C591.466 269.629 594.017 268.055 596.265 266.1C598.145 264.518 600.21 263.17 602.414 262.085C603.914 261.357 605.55 260.95 607.216 260.891C607.828 260.898 608.437 260.983 609.027 261.144Z" fill="white"/>
<path d="M608.774 274.299C607.97 273.483 606.898 272.985 605.756 272.895C602.981 272.871 600.22 273.278 597.57 274.103C594.886 274.827 592.273 275.795 589.764 276.995C588.795 277.458 588.037 277.866 587.504 278.132C587.242 278.299 586.964 278.44 586.675 278.554C586.92 278.362 587.178 278.189 587.448 278.034C587.953 277.725 588.711 277.276 589.666 276.799C592.16 275.524 594.781 274.517 597.486 273.794C598.973 273.387 600.483 273.068 602.007 272.839C603.253 272.612 604.524 272.56 605.784 272.685C606.644 272.777 607.461 273.107 608.143 273.64C608.384 273.828 608.597 274.05 608.774 274.299Z" fill="white"/>
<path d="M590.551 283.608C590.977 283.164 591.448 282.764 591.955 282.415C593.206 281.495 594.644 280.863 596.167 280.561C596.929 280.406 597.716 280.422 598.472 280.609C599.227 280.796 599.931 281.149 600.533 281.642C600.891 281.946 601.191 282.312 601.417 282.723C601.502 282.871 601.559 283.033 601.586 283.201C601.261 282.675 600.859 282.202 600.393 281.797C599.798 281.349 599.115 281.033 598.388 280.871C597.662 280.709 596.909 280.704 596.181 280.856C594.718 281.164 593.33 281.755 592.095 282.597C591.6 282.964 591.085 283.301 590.551 283.608Z" fill="white"/>
<path d="M610.178 253.211C610.116 253.28 610.045 253.342 609.968 253.394C609.827 253.492 609.617 253.647 609.322 253.829C608.98 254.071 608.593 254.243 608.185 254.335C607.632 254.433 607.065 254.399 606.528 254.236C605.335 253.97 604.001 253.366 602.499 252.832C600.87 252.279 599.198 251.861 597.5 251.583C594.39 251.131 591.25 250.92 588.108 250.951H585.3C584.949 250.987 584.597 250.987 584.247 250.951L585.3 250.867L588.108 250.768C591.263 250.669 594.42 250.852 597.542 251.316C599.264 251.588 600.956 252.02 602.597 252.608C604.113 253.141 605.405 253.759 606.584 254.012C607.024 254.171 607.494 254.227 607.959 254.176C608.424 254.125 608.871 253.968 609.266 253.717C609.562 253.533 609.866 253.365 610.178 253.211Z" fill="white"/>
<path d="M656.707 372.439V487.441C656.734 487.661 656.842 487.865 657.008 488.012C657.175 488.159 657.39 488.24 657.613 488.24C657.835 488.24 658.05 488.159 658.217 488.012C658.383 487.865 658.491 487.661 658.518 487.441V372.439C658.491 372.218 658.383 372.015 658.217 371.868C658.05 371.721 657.835 371.639 657.613 371.639C657.39 371.639 657.175 371.721 657.008 371.868C656.842 372.015 656.734 372.218 656.707 372.439Z" fill="#FF725E"/>
<path d="M664.092 462.099C664.092 463.381 663.712 464.636 662.999 465.702C662.286 466.769 661.273 467.6 660.088 468.091C658.903 468.582 657.598 468.711 656.34 468.46C655.082 468.21 653.926 467.592 653.019 466.685C652.112 465.778 651.494 464.622 651.244 463.364C650.993 462.106 651.122 460.802 651.613 459.616C652.104 458.431 652.935 457.418 654.002 456.705C655.068 455.992 656.323 455.612 657.605 455.612C659.326 455.612 660.976 456.295 662.192 457.512C663.409 458.728 664.092 460.378 664.092 462.099Z" fill="#FF725E"/>
<path d="M655.808 465.454C655.808 465.454 651.077 470.186 649.659 484.043C648.241 497.901 647.932 504.822 647.932 504.822L660.68 505.608V495.696C660.68 496.16 663.207 503.095 663.207 503.095L673.288 499.782C673.288 499.782 669.708 462.941 655.808 465.454Z" fill="#FF725E"/>
<path d="M589.497 381.846H373.001V459.894H589.497V381.846Z" fill="#263238"/>
<path d="M665.538 368.424H295.233V381.86H665.538V368.424Z" fill="#263238"/>
<path opacity="0.3" d="M373.001 437.753C373.001 437.753 438.764 414.166 481.249 405.461C523.734 396.756 589.497 399.649 589.497 399.649V381.888H373.001V437.753Z" fill="black"/>
<path opacity="0.3" d="M429.175 368.424H295.233V381.86H429.175V368.424Z" fill="black"/>
<path d="M662.856 381.888C662.856 382.099 580.512 382.267 478.932 382.267C377.353 382.267 295.008 382.099 295.008 381.888C295.008 381.677 377.325 381.523 478.932 381.523C580.54 381.523 662.856 381.649 662.856 381.888Z" fill="#455A64"/>
<path d="M428.964 381.958C428.459 377.423 428.459 372.846 428.964 368.311C429.451 372.847 429.451 377.422 428.964 381.958Z" fill="#455A64"/>
<path d="M459.838 459.908C459.641 459.908 459.473 444.675 459.473 425.889C459.473 407.104 459.641 391.884 459.838 391.884C460.035 391.884 460.217 407.104 460.217 425.889C460.217 444.675 460.049 459.908 459.838 459.908Z" fill="#455A64"/>
<path d="M146.648 555.759L171.541 545.707L190.551 496.047L215.893 509.104C215.893 509.104 213.45 514.004 208.213 526.149C206.177 530.824 199.48 543.896 196.757 550.256C194.236 556.136 190.084 561.171 184.792 564.767C179.5 568.362 173.289 570.367 166.894 570.543L143.531 571.147L146.648 555.759Z" fill="#FFBF9D"/>
<path d="M134.279 546.156L130.572 542.197C129.852 541.724 129.004 541.484 128.143 541.509L116.237 541.874C115.126 541.981 114.053 542.337 113.097 542.916C112.142 543.494 111.329 544.28 110.719 545.215L106.381 552.586C106.381 552.586 103.475 557.627 103.84 558.862C104.002 559.375 104.349 559.81 104.813 560.082C105.277 560.354 105.826 560.445 106.353 560.336C106.353 560.336 106.774 562.667 107.546 563.144C107.993 563.369 108.481 563.502 108.981 563.533C109.48 563.564 109.981 563.494 110.453 563.327C110.658 563.769 110.991 564.14 111.409 564.39C111.827 564.64 112.311 564.759 112.797 564.731C113.006 564.712 113.213 564.674 113.415 564.619C114.819 564.183 115.465 561.446 115.465 561.446L121.502 560.336C121.502 560.336 130.179 566.135 133.24 569.926C136.3 573.717 144.303 570.824 144.303 570.824L147.294 556.503L134.279 546.156Z" fill="#FFBF9D"/>
<path d="M125.504 547.855C124.657 548.117 123.778 548.263 122.892 548.29C121.249 548.473 118.933 548.543 116.307 548.88L116.588 548.669C116.137 549.639 115.621 550.577 115.044 551.477C113.458 553.992 111.53 556.275 109.315 558.258C108.445 559.133 107.434 559.854 106.325 560.393C106.325 560.294 107.378 559.452 108.95 557.865C111.015 555.813 112.847 553.539 114.412 551.084C114.988 550.143 115.507 549.217 115.942 548.276L116.027 548.094H116.223C118.905 547.799 121.221 547.827 122.864 547.771C123.744 547.707 124.629 547.735 125.504 547.855Z" fill="#FF9A6C"/>
<path d="M125.77 553.541C125.068 553.884 124.304 554.084 123.524 554.131C121.585 554.399 119.614 554.332 117.697 553.934L118.133 553.695C117.88 554.431 117.589 555.152 117.262 555.858C116.176 558.098 114.654 560.098 112.783 561.74C112.053 562.464 111.184 563.033 110.228 563.411C110.921 562.685 111.652 561.996 112.418 561.347C114.149 559.664 115.574 557.692 116.63 555.521C116.955 554.85 117.241 554.161 117.487 553.457L117.599 553.148H117.908C120.499 553.633 123.144 553.765 125.77 553.541Z" fill="#FF9A6C"/>
<path d="M140.905 556.475L130.277 551.533C128.851 550.739 127.271 550.261 125.644 550.129C123.904 550.282 122.225 550.845 120.744 551.772L115.016 554.72C114.707 554.889 114.37 555.085 114.272 555.408C114.173 555.731 114.44 556.293 114.763 556.616C116.242 558.015 118.177 558.831 120.211 558.913C122.244 558.996 124.239 558.339 125.827 557.065C126.602 559.596 127.814 561.971 129.407 564.085C130.221 565.145 131.295 565.976 132.525 566.5C133.754 567.024 135.098 567.222 136.427 567.076" fill="#FFBF9D"/>
<path d="M136.399 567.216C136.31 567.26 136.215 567.288 136.118 567.3C135.833 567.371 135.541 567.408 135.247 567.413C134.132 567.417 133.033 567.147 132.046 566.626C130.518 565.827 129.222 564.647 128.284 563.201C127.118 561.343 126.176 559.354 125.476 557.276L126.009 557.402C125.156 558.118 124.17 558.658 123.107 558.991C122.044 559.323 120.926 559.442 119.817 559.34C118.612 559.257 117.436 558.927 116.364 558.371C115.814 558.08 115.301 557.727 114.833 557.318C114.58 557.109 114.349 556.873 114.145 556.616C114.013 556.456 113.918 556.268 113.867 556.066C113.816 555.865 113.81 555.654 113.85 555.45C113.896 555.283 113.976 555.127 114.084 554.992C114.193 554.856 114.329 554.745 114.482 554.664C114.735 554.51 114.946 554.412 115.17 554.285L116.49 553.611L119.087 552.207C120.701 551.262 122.421 550.513 124.212 549.975C125.931 549.665 127.705 549.937 129.252 550.747C130.656 551.393 132.06 552.039 133.183 552.614L138.799 555.422C139.505 555.74 140.186 556.111 140.835 556.532C140.092 556.311 139.369 556.03 138.673 555.689L132.917 553.148L128.957 551.379C127.53 550.647 125.899 550.415 124.324 550.719C122.597 551.259 120.938 551.999 119.382 552.923L116.799 554.327L115.479 555.015C115.03 555.24 114.552 555.465 114.524 555.689C114.496 555.914 114.847 556.461 115.282 556.812C115.711 557.185 116.182 557.505 116.686 557.767C117.668 558.276 118.743 558.581 119.845 558.666C121.897 558.865 123.944 558.25 125.546 556.953L125.911 556.644L126.065 557.093C126.72 559.136 127.6 561.1 128.691 562.948C129.55 564.349 130.747 565.513 132.173 566.331C133.468 567.024 134.934 567.331 136.399 567.216Z" fill="#FF9A6C"/>
<path d="M279.115 417.367C279.213 409.392 280.519 401.446 280.154 393.499C279.789 385.552 277.753 377.227 272.193 371.512C266.634 365.798 256.932 363.636 250.474 368.199L249.07 374.994C251.625 405.742 251.288 436.981 253.843 467.729C254.18 471.772 257.451 475.437 259.291 479.045C261.13 482.653 264.822 485.644 268.866 485.391C274.159 485.068 277.627 479.705 279.27 474.65C285.307 456.384 278.877 436.644 279.115 417.367Z" fill="#263238"/>
<path d="M259.937 376.019C258.872 373.993 257.503 372.142 255.879 370.53C255.06 369.728 254.069 369.122 252.983 368.757C251.896 368.392 250.74 368.278 249.603 368.424C249.067 368.49 248.558 368.693 248.123 369.012C247.688 369.332 247.342 369.758 247.118 370.249C246.767 371.26 247.525 372.622 248.592 372.523L248.817 372.72C251.204 374.835 253.633 376.899 256.104 378.912C256.693 379.462 257.385 379.891 258.139 380.175C258.519 380.313 258.929 380.342 259.324 380.258C259.719 380.173 260.082 379.979 260.372 379.698C261.256 378.715 260.61 377.157 259.937 376.019Z" fill="#FF725E"/>
<path d="M264.443 383.854C256.497 374.138 245.826 368.536 233.275 368.41C226.255 368.283 223.264 369.814 218.168 371.133C213.064 372.365 208.554 375.346 205.419 379.557C201.811 384.682 198.778 390.424 198.09 396.672C197.191 403.056 196.885 409.509 197.178 415.949C197.472 422.421 199.552 428.684 203.187 434.047L219.529 436.855C228.557 437.163 237.711 437.458 246.514 435.451C255.317 433.443 263.854 428.655 268.557 420.947C275.1 410.165 272.376 393.555 264.443 383.854Z" fill="#263238"/>
<path d="M249.912 383.741L228.122 375.079L222.422 375.738C209.617 375.738 200.772 389.919 200.688 400.28C200.604 411.821 200.94 425.889 202.766 434.384C206.458 451.47 221.018 452.888 221.018 452.888C221.018 452.888 220.723 462 220.611 467.729L253.984 465.328L255.654 389.596C255.604 388.078 254.986 386.635 253.923 385.551C252.859 384.467 251.428 383.821 249.912 383.741Z" fill="#FFBF9D"/>
<path d="M228.389 430.382C228.254 429.509 227.804 428.715 227.125 428.15C226.507 427.617 225.731 427.303 224.917 427.255C224.102 427.207 223.295 427.427 222.618 427.883C221.916 428.424 221.37 429.142 221.037 429.964C220.704 430.786 220.596 431.681 220.723 432.558C221.098 433.085 221.582 433.525 222.141 433.85C222.7 434.174 223.323 434.375 223.966 434.44C224.167 434.454 224.369 434.454 224.57 434.44C225.611 434.461 226.62 434.073 227.378 433.359C227.759 432.97 228.048 432.501 228.223 431.986C228.398 431.47 228.455 430.922 228.389 430.382Z" fill="#FF9A6C"/>
<path d="M206.458 414.868C206.48 415.445 206.728 415.991 207.148 416.387C207.568 416.784 208.127 416.999 208.705 416.988C208.987 416.994 209.268 416.943 209.531 416.839C209.794 416.735 210.033 416.58 210.236 416.383C210.438 416.186 210.6 415.95 210.71 415.69C210.821 415.43 210.879 415.151 210.881 414.868C210.852 414.291 210.6 413.747 210.178 413.352C209.757 412.956 209.198 412.74 208.62 412.748C208.338 412.742 208.058 412.793 207.796 412.897C207.534 413.001 207.295 413.156 207.094 413.354C206.893 413.551 206.733 413.787 206.623 414.047C206.514 414.307 206.458 414.586 206.458 414.868Z" fill="#263238"/>
<path d="M204.591 406.051C204.872 406.318 206.486 404.998 208.803 404.871C211.12 404.745 213.015 405.84 213.24 405.531C213.464 405.222 213.043 404.886 212.257 404.38C211.188 403.724 209.942 403.415 208.691 403.496C207.454 403.557 206.269 404.009 205.307 404.787C204.661 405.391 204.436 405.924 204.591 406.051Z" fill="#263238"/>
<path d="M219.866 424.71C218.593 424.375 217.28 424.21 215.963 424.219C215.36 424.219 214.77 424.106 214.644 423.685C214.567 423.064 214.675 422.434 214.952 421.874C215.444 420.372 215.963 418.799 216.497 417.142C218.631 410.431 220.147 404.914 219.866 404.829C219.586 404.745 217.648 410.122 215.514 416.848L214.11 421.593C213.764 422.346 213.7 423.198 213.927 423.994C214.025 424.203 214.169 424.387 214.349 424.531C214.53 424.674 214.741 424.774 214.966 424.822C215.308 424.895 215.657 424.924 216.005 424.907C217.296 424.993 218.592 424.927 219.866 424.71Z" fill="#263238"/>
<path d="M220.99 452.874C229.113 452.553 236.987 449.982 243.734 445.447C243.734 445.447 238.245 457.732 220.905 457.072L220.99 452.874Z" fill="#FF9A6C"/>
<path d="M226.957 425.96C226.578 425.96 226.704 428.543 224.598 430.494C222.492 432.446 219.726 432.32 219.726 432.685C219.726 433.05 220.372 433.148 221.523 433.12C223.042 433.06 224.489 432.463 225.609 431.435C226.68 430.453 227.329 429.095 227.42 427.644C227.448 426.563 227.139 425.946 226.957 425.96Z" fill="#263238"/>
<path d="M205.391 397.725C205.826 398.273 207.624 397.795 209.758 397.851C211.892 397.908 213.689 398.371 214.138 397.851C214.335 397.585 214.068 397.037 213.296 396.447C212.252 395.769 211.031 395.412 209.786 395.423C208.54 395.389 207.312 395.716 206.248 396.363C205.475 396.897 205.209 397.444 205.391 397.725Z" fill="#263238"/>
<path d="M232.418 414.278C232.43 414.855 232.217 415.413 231.823 415.835C231.43 416.257 230.888 416.51 230.312 416.539C230.031 416.566 229.748 416.536 229.479 416.452C229.209 416.368 228.96 416.231 228.744 416.05C228.528 415.868 228.351 415.645 228.222 415.394C228.094 415.143 228.017 414.868 227.996 414.587C227.984 414.011 228.195 413.453 228.584 413.029C228.974 412.606 229.513 412.349 230.088 412.313C230.37 412.286 230.655 412.315 230.926 412.4C231.197 412.485 231.449 412.623 231.666 412.806C231.883 412.989 232.061 413.213 232.19 413.466C232.32 413.719 232.397 413.995 232.418 414.278Z" fill="#263238"/>
<path d="M236.771 405.124C236.504 405.419 234.805 404.212 232.418 404.254C230.031 404.296 228.319 405.531 228.052 405.237C227.785 404.942 228.192 404.591 228.95 404.015C229.965 403.284 231.182 402.886 232.432 402.878C233.671 402.85 234.886 403.219 235.9 403.931C236.644 404.478 236.911 404.998 236.771 405.124Z" fill="#263238"/>
<path d="M235.339 397.515C234.889 398.062 233.036 397.515 230.832 397.515C228.627 397.515 226.746 397.95 226.311 397.388C226.114 397.121 226.409 396.574 227.209 395.984C228.319 395.334 229.588 395.008 230.874 395.043C232.15 395.029 233.404 395.385 234.482 396.068C235.282 396.686 235.549 397.248 235.339 397.515Z" fill="#263238"/>
<path d="M252.72 418.546C252.72 417.269 253.97 414.166 255.233 413.899C258.589 413.183 264.696 413.113 265.23 421.705C265.96 433.457 253.998 431.758 253.998 431.421C253.998 431.084 252.931 422.983 252.72 418.546Z" fill="#FFBF9D"/>
<path d="M256.932 426.928C256.932 426.928 257.143 427.069 257.494 427.195C257.989 427.396 258.543 427.396 259.038 427.195C260.245 426.662 261.172 424.626 261.102 422.506C261.067 421.497 260.808 420.509 260.344 419.613C260.212 419.252 259.993 418.928 259.707 418.671C259.42 418.414 259.075 418.231 258.701 418.139C258.464 418.092 258.217 418.13 258.005 418.245C257.792 418.361 257.626 418.547 257.536 418.771C257.395 419.108 257.536 419.347 257.423 419.361C257.311 419.375 257.157 419.178 257.227 418.687C257.273 418.392 257.423 418.124 257.648 417.929C257.798 417.796 257.974 417.694 258.165 417.632C258.356 417.569 258.557 417.546 258.757 417.564C259.247 417.623 259.712 417.809 260.106 418.105C260.5 418.401 260.81 418.795 261.004 419.248C261.564 420.235 261.878 421.343 261.916 422.478C261.986 424.85 260.905 427.139 259.249 427.729C258.939 427.841 258.608 427.883 258.28 427.851C257.952 427.819 257.636 427.715 257.353 427.546C256.932 427.223 256.932 426.956 256.932 426.928Z" fill="#FF9A6C"/>
<path d="M255.682 413.927L252.72 416.988C239.831 404.647 214.644 373.759 216.062 375.598C221.936 373.415 228.266 372.743 234.468 373.647C244.057 375.275 262.225 380.077 261.944 391.379C261.664 402.681 255.682 413.927 255.682 413.927Z" fill="#263238"/>
<path d="M272.755 411.372C272.717 411.142 272.656 410.916 272.573 410.698C272.359 410.059 272.091 409.439 271.772 408.845C270.556 406.67 268.878 404.787 266.858 403.327C263.88 401.188 260.555 399.578 257.03 398.568C253.099 397.29 248.676 396.293 244.324 394.356C240.22 392.645 236.328 390.464 232.727 387.855C229.782 385.722 227.038 383.325 224.528 380.695C222.844 378.915 221.264 377.04 219.796 375.079L218.617 373.45C218.485 373.253 218.335 373.07 218.168 372.902C218.266 373.118 218.383 373.325 218.519 373.52C218.757 373.913 219.108 374.489 219.6 375.205C221.005 377.237 222.549 379.169 224.219 380.989C229.761 387.015 236.543 391.767 244.099 394.917C248.282 396.502 252.541 397.875 256.862 399.031C260.371 399.987 263.694 401.53 266.69 403.594C268.689 404.998 270.376 406.8 271.646 408.887C272.376 410.417 272.685 411.372 272.755 411.372Z" fill="#455A64"/>
<path d="M269.329 413.183C269.368 412.304 269.214 411.428 268.88 410.614C267.993 408.368 266.453 406.441 264.457 405.082C261.471 403.159 258.129 401.855 254.629 401.249C250.442 400.41 246.359 399.11 242.457 397.374C238.571 395.601 234.92 393.351 231.59 390.677C228.88 388.483 226.388 386.034 224.149 383.362C222.623 381.55 221.216 379.641 219.937 377.648L218.94 376.005C218.837 375.808 218.709 375.624 218.561 375.458C218.639 375.666 218.733 375.868 218.841 376.061L219.74 377.774C220.935 379.82 222.277 381.777 223.755 383.629C225.969 386.371 228.457 388.879 231.183 391.112C234.533 393.84 238.218 396.128 242.148 397.922C246.085 399.679 250.212 400.974 254.447 401.783C257.883 402.355 261.175 403.595 264.135 405.433C266.092 406.722 267.633 408.551 268.571 410.698C268.9 411.501 269.153 412.333 269.329 413.183Z" fill="#455A64"/>
<path d="M255.289 433.836C255.289 433.752 256.286 433.625 258.027 433.162C260.468 432.457 262.716 431.204 264.598 429.498C267.355 426.917 269.45 423.709 270.705 420.147C272.309 415.805 273.172 411.226 273.261 406.598C273.314 404.208 273.121 401.817 272.685 399.466C271.507 393.552 268.729 388.074 264.654 383.629C262.258 381.085 259.615 378.785 256.764 376.763C256.764 376.763 257.002 376.848 257.423 377.1C257.845 377.353 258.448 377.69 259.192 378.224C261.325 379.687 263.293 381.377 265.061 383.264C267.709 386.061 269.852 389.296 271.393 392.825C272.287 394.919 272.969 397.096 273.429 399.326C273.881 401.727 274.083 404.169 274.033 406.612C273.948 411.327 273.051 415.991 271.379 420.4C270.05 424.045 267.847 427.309 264.963 429.905C262.994 431.617 260.645 432.835 258.111 433.457C257.422 433.613 256.723 433.726 256.019 433.794C255.778 433.827 255.533 433.841 255.289 433.836Z" fill="#455A64"/>
<path d="M270.242 578.322L200.772 588.416C174.672 595.801 147.181 597.964 118.441 595.436L222.997 644.211L264.977 644.857C264.977 644.857 277.753 644.857 279.986 633.709C282.218 622.562 284.703 588.613 284.703 588.613C284.703 588.613 276.405 581.424 270.242 578.322Z" fill="#263238"/>
<g opacity="0.3">
<path d="M270.031 607.567C271.18 614.524 271.594 621.583 271.267 628.627C273.401 626.284 274.973 623.486 275.863 620.445C276.753 617.404 276.939 614.2 276.405 611.077C275.802 607.651 274.37 603.874 276.167 600.884C277.374 598.876 280.561 596.574 280.098 594.285C280.098 594.285 277.29 594.285 274.777 594.187C272.741 594.103 268.515 593.976 268.515 593.976C270.333 598.344 270.726 603.174 269.638 607.778" fill="black"/>
</g>
<path d="M220.723 464.864L254.475 461.214L260.653 466.83L236.56 481.01L225.932 486.514L215.43 483.327L212.102 477.065L220.723 464.864Z" fill="#FFBF9D"/>
<path d="M175.219 505.959C175.219 505.959 185.805 485.658 188.417 481.221C192.882 473.653 201.221 469.371 201.221 469.371L220.723 464.864C220.723 464.864 218.701 474.692 230.832 475.31C246.276 476.167 255.865 461.368 255.865 461.368C255.865 461.368 273.471 463.18 278.329 465.215C283.187 467.251 296.946 473.022 298.968 491.302L303.685 521.165L266.479 523.973L266.985 563.734L251.176 576.665C251.176 576.665 205.784 592.291 202.878 593.316C201.474 593.808 201.839 574.517 198.596 557.978L192.474 543.109C189.996 537.171 188.53 530.859 188.136 524.436C187.897 520.224 188.01 516.995 188.01 516.995C188.01 516.995 178.462 513.724 175.219 505.959Z" fill="#455A64"/>
<path d="M204.535 577.732L266.914 559.017L266.479 524.001L298.238 521.586C298.238 521.586 295.711 539.726 295.331 549.02C294.798 562.4 288.311 581.102 284.099 585.061C279.887 589.02 202.92 593.344 202.92 593.344L204.535 577.732Z" fill="#FFBF9D"/>
<path d="M169.154 588.739C169.455 589.254 169.933 589.642 170.498 589.831C171.064 590.019 171.679 589.996 172.229 589.764C173.633 589.203 173.254 586.367 173.254 586.367L179.895 584.738C179.895 584.738 189.063 589.708 192.531 593.162C195.998 596.616 203.622 593.007 203.622 593.007L205.209 578.448L191.969 568.213C191.969 568.213 192.783 568.831 191.758 566.809C190.733 564.787 186.915 565.882 186.915 565.882C186.241 564.885 183.671 564.717 183.671 564.717L172.903 566.809C171.81 567.021 170.779 567.476 169.885 568.139C168.99 568.803 168.256 569.658 167.736 570.642L163.706 578.265C163.706 578.265 161.685 583.685 162.176 584.878C162.388 585.372 162.774 585.771 163.26 585.999C163.747 586.227 164.301 586.268 164.816 586.114C164.816 586.114 165.616 589.512 166.528 589.554C167.451 589.439 168.342 589.149 169.154 588.697V588.739Z" fill="#FFBF9D"/>
<path d="M191.464 576.665C191.464 576.777 190.06 576.749 187.701 577.03C184.697 577.413 181.759 578.202 178.968 579.375C177.435 580.03 175.956 580.804 174.545 581.691C173.296 582.52 171.976 583.236 171.625 584.232C171.549 584.447 171.53 584.677 171.57 584.901C171.609 585.125 171.705 585.335 171.85 585.51C172.072 585.802 172.374 586.021 172.72 586.142C173.31 586.324 173.661 586.142 173.689 586.142C173.717 586.142 173.366 586.465 172.65 586.338C172.226 586.244 171.843 586.018 171.555 585.693C171.348 585.47 171.203 585.198 171.134 584.903C171.065 584.607 171.075 584.299 171.162 584.008C171.401 583.354 171.832 582.786 172.397 582.379C172.959 581.944 173.548 581.509 174.208 581.073C178.231 578.439 182.851 576.86 187.645 576.482C188.919 576.337 190.209 576.398 191.464 576.665Z" fill="#FF9A6C"/>
<path d="M192.769 583.531C192.769 583.727 188.333 583.896 182.941 584.626C177.55 585.356 173.226 586.367 173.113 586.17C174.004 585.741 174.949 585.434 175.921 585.257C178.197 584.685 180.503 584.245 182.829 583.938C185.157 583.622 187.5 583.439 189.849 583.39C190.824 583.303 191.807 583.351 192.769 583.531Z" fill="#FF9A6C"/>
<path d="M169.196 588.459C169.082 588.088 169.007 587.707 168.971 587.321C168.827 586.265 168.742 585.2 168.719 584.134C168.706 583.392 168.753 582.65 168.859 581.916C168.989 581.051 169.29 580.221 169.744 579.473C170.678 577.742 171.947 576.215 173.478 574.98C174.993 573.742 176.676 572.726 178.477 571.962C179.969 571.407 181.526 571.044 183.11 570.88C184.514 570.726 185.525 570.684 186.283 570.642C186.669 570.585 187.062 570.585 187.448 570.642C186.059 570.959 184.653 571.194 183.236 571.344C181.708 571.568 180.211 571.964 178.771 572.523C177.044 573.294 175.429 574.295 173.97 575.5C172.515 576.67 171.287 578.098 170.347 579.712C169.598 581.042 169.224 582.551 169.266 584.078C169.154 586.788 169.351 588.459 169.196 588.459Z" fill="#FF9A6C"/>
<path d="M183.362 567.553C183.362 567.665 181.748 567.834 179.15 568.325C176.553 568.817 172.692 569.392 170.726 573.015C168.72 575.762 167.1 578.771 165.911 581.958C165.54 583.313 165.3 584.7 165.195 586.1C165.064 585.731 165.011 585.339 165.04 584.949C165.015 583.891 165.147 582.836 165.433 581.818C166.502 578.519 168.095 575.414 170.151 572.621C170.697 571.776 171.353 571.006 172.102 570.333C172.825 569.713 173.659 569.237 174.559 568.929C176.036 568.417 177.56 568.055 179.108 567.848C180.508 567.572 181.938 567.473 183.362 567.553Z" fill="#FF9A6C"/>
<path d="M189.919 591.084C189.676 590.956 189.446 590.806 189.231 590.635L187.308 589.329C184.884 587.732 182.371 586.275 179.782 584.963H179.937L173.31 586.633L173.52 586.324C173.584 586.875 173.584 587.431 173.52 587.981C173.479 588.588 173.259 589.169 172.889 589.652C172.658 589.895 172.36 590.061 172.032 590.129C171.73 590.235 171.41 590.278 171.091 590.256C170.432 590.208 169.811 589.93 169.336 589.469C169.221 589.35 169.114 589.223 169.014 589.09V588.992L169.407 589.104L169.196 589.203C168.923 589.346 168.642 589.472 168.354 589.582C168.06 589.697 167.76 589.795 167.455 589.877C167.295 589.924 167.13 589.957 166.964 589.975C166.751 590.01 166.532 589.985 166.332 589.905C166.011 589.701 165.757 589.409 165.602 589.062C165.446 588.772 165.31 588.472 165.195 588.164C164.959 587.556 164.766 586.932 164.619 586.296L165.026 586.535C164.579 586.672 164.102 586.683 163.649 586.567C163.195 586.451 162.783 586.211 162.457 585.875C162.118 585.517 161.919 585.048 161.895 584.555C161.894 584.112 161.936 583.67 162.022 583.236C162.397 581.545 162.895 579.884 163.51 578.265L165.658 574.194L167.062 571.625C167.478 570.736 167.986 569.894 168.578 569.111C169.222 568.359 170.009 567.743 170.895 567.3C171.758 566.903 172.677 566.638 173.619 566.514L183.756 564.562H183.84C184.463 564.61 185.08 564.723 185.679 564.899C186.315 565.04 186.891 565.379 187.322 565.868L186.929 565.784C187.463 565.488 188.062 565.326 188.673 565.311C189.284 565.296 189.89 565.43 190.439 565.7C191.387 566.299 192.078 567.23 192.376 568.311L192.278 568.185L201.404 575.205L203.861 577.142C204.157 577.357 204.434 577.597 204.689 577.858C204.367 577.692 204.061 577.494 203.777 577.269L201.235 575.429L191.969 568.606H191.899V568.508C191.637 567.567 191.031 566.76 190.2 566.247C189.737 566.025 189.227 565.918 188.714 565.935C188.2 565.952 187.699 566.093 187.251 566.346L187.013 566.458L186.858 566.261C186.501 565.891 186.042 565.637 185.539 565.531C184.979 565.376 184.405 565.278 183.826 565.236H183.91L173.773 567.23C172.888 567.345 172.026 567.596 171.218 567.974C170.421 568.369 169.714 568.923 169.14 569.603C168.587 570.35 168.116 571.155 167.736 572.004L166.332 574.573C165.588 575.977 164.928 577.381 164.184 578.645C163.605 580.23 163.136 581.853 162.78 583.502C162.699 583.886 162.657 584.276 162.653 584.668C162.672 585.005 162.812 585.324 163.047 585.566C163.288 585.808 163.59 585.98 163.921 586.064C164.253 586.148 164.6 586.141 164.928 586.044L165.265 585.959V586.282C165.419 586.886 165.602 587.504 165.812 588.079C165.966 588.606 166.246 589.088 166.627 589.483C166.718 589.511 166.816 589.511 166.908 589.483L167.315 589.399C167.598 589.336 167.876 589.247 168.143 589.132C168.41 589.034 168.677 588.908 168.943 588.781L169.14 588.697L169.547 588.81V588.88C169.624 588.989 169.708 589.092 169.8 589.189C170.061 589.468 170.397 589.666 170.768 589.76C171.139 589.855 171.528 589.842 171.892 589.722C172.116 589.684 172.322 589.576 172.481 589.413C172.976 588.566 173.16 587.573 173.001 586.605V586.353H173.226L179.88 584.78H179.965C182.552 586.127 185.043 587.652 187.42 589.343C188.248 589.947 188.824 590.424 189.287 590.747C189.506 590.844 189.717 590.957 189.919 591.084Z" fill="#FF9A6C"/>
<path d="M157.487 600.098C157.487 600.098 113.471 586.268 99.6559 581.846C75.7879 574.124 60.2597 581.93 55.3457 590.438C48.9715 601.488 64.2611 623.039 70.1579 627.995C87.6096 642.667 117.529 644.647 117.529 644.647L225.103 644.45L193.752 601.797L157.487 600.098Z" fill="#263238"/>
<path d="M164.085 620.063C146.16 622.149 127.997 619.676 111.281 612.874C108.429 611.585 105.493 610.492 102.492 609.603C99.5256 608.855 96.4505 608.636 93.4081 608.957C92.2007 608.988 91.0118 609.261 89.912 609.76C88.8121 610.259 87.8239 610.975 87.0059 611.863C84.8578 614.671 85.9529 618.715 87.1463 622.056C88.5503 625.987 89.9543 630.003 92.7623 633.148C95.9494 636.812 100.583 638.918 105.23 640.378C114.314 643.186 123.903 644.071 133.422 644.436L166.107 642.653L164.085 620.063Z" fill="#E0E0E0"/>
<path d="M100.962 609.617C101.176 609.88 101.343 610.18 101.453 610.501C101.833 611.339 102.124 612.215 102.324 613.113C103.029 616.1 102.905 619.224 101.965 622.146C101.025 625.069 99.3039 627.678 96.9883 629.694C96.299 630.298 95.5566 630.838 94.77 631.309C94.1944 631.632 93.8715 631.772 93.8434 631.73C93.8153 631.688 95.0227 630.915 96.6514 629.329C98.7882 627.286 100.381 624.742 101.286 621.927C102.191 619.112 102.378 616.117 101.832 613.211C101.439 610.965 100.849 609.659 100.962 609.617Z" fill="#263238"/>
<path d="M269.835 597.402C267.279 590.157 266.858 579.515 251.091 574.404C235.324 569.294 223.419 579.094 215.317 582.492C207.216 585.889 162.948 610.178 162.948 610.178C162.948 610.178 154.608 625.047 156.981 631.617C159.354 638.188 170.137 644.675 170.137 644.675H219.656C232.432 644.675 256.16 644.239 256.16 644.239C259.337 639.032 262.183 633.63 264.682 628.065L265.103 625.931C265.145 624.232 272.376 604.647 269.835 597.402Z" fill="#263238"/>
<path d="M242.401 635.015C242.336 635.267 242.211 635.498 242.036 635.689C241.555 636.246 241.008 636.741 240.407 637.163C238.196 638.688 235.845 639.999 233.387 641.08C231.708 641.863 229.982 642.543 228.22 643.116C226.181 643.758 224.091 644.228 221.972 644.52C217.14 645.001 212.282 645.189 207.427 645.082C197.136 645.25 187.771 645.643 181.032 645.559C177.648 645.559 174.91 645.405 173.029 645.208C172.303 645.145 171.581 645.041 170.867 644.899C170.614 644.869 170.364 644.812 170.123 644.731C170.123 644.661 171.162 644.843 173.043 644.941C174.924 645.04 177.662 645.11 181.032 645.082C187.785 645.082 197.108 644.562 207.427 644.394C212.258 644.498 217.091 644.33 221.902 643.888C223.983 643.633 226.039 643.211 228.052 642.625C229.803 642.084 231.519 641.437 233.19 640.687C235.632 639.66 237.981 638.425 240.21 636.995C240.817 636.589 241.377 636.118 241.881 635.591C242.274 635.254 242.358 635.001 242.401 635.015Z" fill="#263238"/>
<path d="M170.137 644.675L169.477 644.324C169.056 644.085 168.438 643.692 167.638 643.172C165.309 641.653 163.128 639.918 161.123 637.992C159.671 636.599 158.431 635 157.445 633.246C156.436 631.05 156.18 628.583 156.715 626.226C157.918 620.582 159.938 615.143 162.71 610.08V610.01C170.825 605.545 180.133 600.477 190.298 595.015C195.381 592.291 200.674 589.469 206.177 586.591C208.985 585.187 211.793 583.783 214.601 582.379C217.409 580.975 220.288 579.571 223.194 578.055C227.209 575.855 231.515 574.234 235.984 573.239C238.18 572.801 240.415 572.599 242.653 572.635C244.843 572.702 247.019 573.012 249.14 573.562C253.252 574.575 257.113 576.419 260.484 578.982C262.052 580.28 263.44 581.782 264.612 583.446C265.69 585.087 266.58 586.844 267.265 588.683C267.967 590.48 268.459 592.291 268.964 594.06C269.544 595.779 270.012 597.533 270.368 599.311C270.589 602.709 270.305 606.12 269.526 609.434C268.894 612.593 268.122 615.542 267.322 618.28C266.928 619.684 266.535 620.989 266.17 622.267C265.805 623.544 265.384 624.808 265.188 625.931C265.019 626.732 264.893 627.335 264.752 628.051C263.4 632.39 261.489 636.534 259.066 640.378C258.208 641.753 257.195 643.025 256.047 644.169L256.23 643.917C256.384 643.734 256.581 643.509 256.82 643.201C257.564 642.265 258.257 641.29 258.898 640.28C261.237 636.412 263.081 632.266 264.387 627.939C265.188 627.265 265.033 626.605 264.794 625.805C265.04 624.524 265.359 623.258 265.749 622.014L266.886 618.041C267.645 615.233 268.403 612.341 269.02 609.21C269.768 605.948 270.033 602.594 269.807 599.255C269.437 597.512 268.969 595.792 268.403 594.103C267.883 592.334 267.378 590.536 266.69 588.781C266.02 586.985 265.148 585.271 264.092 583.671C262.953 582.061 261.603 580.611 260.077 579.361C255.028 575.576 248.945 573.421 242.639 573.183C240.452 573.147 238.268 573.349 236.125 573.787C231.708 574.767 227.454 576.369 223.489 578.546C220.681 579.95 217.873 581.635 214.854 582.885C211.836 584.134 209.238 585.622 206.43 587.097C200.941 589.905 195.633 592.713 190.551 595.521L162.92 610.417L163.018 610.305C160.255 615.309 158.226 620.686 156.995 626.268C156.441 628.545 156.664 630.942 157.627 633.078C158.572 634.816 159.775 636.402 161.193 637.781C163.162 639.722 165.3 641.484 167.581 643.046L169.379 644.254C169.884 644.52 170.137 644.675 170.137 644.675Z" fill="#263238"/>
<path d="M250.726 626.296C250.726 626.296 265.482 628.065 264.177 635.282C262.871 642.499 258.041 644.927 258.041 644.927L217.943 645.012C217.943 645.012 241.881 643.355 250.726 626.296Z" fill="#E0E0E0"/>
<path d="M252.158 622.8C252.155 623.503 252.002 624.197 251.709 624.836C251.166 626.45 250.359 627.964 249.322 629.315C247.924 631.285 245.968 632.791 243.706 633.639C245.568 632.242 247.277 630.651 248.803 628.894C250.09 626.96 251.213 624.922 252.158 622.8Z" fill="#263238"/>
<path d="M247.104 625.622C247.128 627.433 246.641 629.214 245.7 630.761C244.979 632.401 243.877 633.846 242.485 634.973C242.33 634.847 243.776 632.979 245.082 630.41C246.388 627.841 246.851 625.594 247.104 625.622Z" fill="#263238"/>
<path d="M265.861 642.92C265.749 642.92 266.704 641.038 267.855 637.935C270.878 629.832 271.875 621.114 270.761 612.537C270.326 609.266 269.821 607.258 269.933 607.23C270.155 607.674 270.316 608.146 270.41 608.634C270.757 609.905 271.034 611.194 271.239 612.495C272.644 621.147 271.633 630.018 268.318 638.132C267.818 639.328 267.251 640.495 266.62 641.628C266.419 642.087 266.164 642.521 265.861 642.92Z" fill="#455A64"/>
<g opacity="0.3">
<path d="M257.522 622.407C257.409 621.438 257.03 620.287 256.118 620.091C254.938 619.852 254.138 621.2 253.675 622.295C248.508 634.046 231.814 643.215 219.024 644.436C225.227 644.422 231.42 643.915 237.543 642.92C242.764 642.138 247.66 639.899 251.667 636.461C253.659 634.728 255.225 632.558 256.24 630.12C257.256 627.682 257.694 625.042 257.522 622.407Z" fill="black"/>
</g>
<path d="M159.831 606.416C157.386 605.729 155.008 604.822 152.727 603.706C150.356 602.808 148.072 601.694 145.904 600.378C148.346 601.069 150.723 601.971 153.008 603.074C155.38 603.977 157.664 605.095 159.831 606.416Z" fill="#263238"/>
<g opacity="0.2">
<path d="M174.096 600.21C155.002 596.56 135.837 593.316 116.602 590.48L102.281 595.001C106.297 602.47 114.229 607.23 122.471 609.196C130.712 611.161 139.319 610.698 147.743 609.926C157.037 609.069 166.585 607.764 174.672 603.102C175.289 602.751 175.991 602.218 175.907 601.502C175.823 600.786 174.924 600.364 174.096 600.21Z" fill="black"/>
</g>
<path d="M80.1122 543.348L104.177 596.56C104.664 597.644 105.452 598.566 106.447 599.216C107.443 599.865 108.604 600.215 109.793 600.224L179.993 601.137L188.838 596.377L174.981 595.366L153.415 543.615C153.079 542.81 152.515 542.121 151.791 541.634C151.067 541.147 150.216 540.884 149.343 540.877L82.1059 540.372C81.7472 540.358 81.3912 540.437 81.0715 540.6C80.7519 540.764 80.4793 541.006 80.2795 541.304C80.0798 541.602 79.9596 541.947 79.9303 542.304C79.901 542.662 79.9636 543.021 80.1122 543.348Z" fill="#E0E0E0"/>
<path d="M80.1123 543.348C79.9975 543.15 79.9257 542.93 79.9017 542.702C79.8572 542.365 79.894 542.022 80.0087 541.703C80.1235 541.383 80.313 541.095 80.5615 540.863C80.9453 540.507 81.4426 540.298 81.9655 540.273H88.1291L116.279 540.372L135.851 540.47L146.788 540.54H149.596C150.636 540.615 151.623 541.029 152.404 541.719C153.157 542.426 153.714 543.316 154.019 544.303L155.17 547.111C161.306 561.811 168.087 578.069 175.275 595.254L174.938 595.015L188.319 595.998H188.796L190.2 596.096L189.006 596.742L180.161 601.502H180.063H179.965L126.753 600.772L114.875 600.603C112.938 600.603 111.085 600.603 109.161 600.491C108.2 600.377 107.276 600.055 106.454 599.545C105.631 599.036 104.931 598.352 104.401 597.542C101.271 590.958 98.6591 584.906 96.1179 579.29L84.3523 552.979C82.9483 549.905 81.9375 547.504 81.2074 545.833C80.8564 545.047 80.6037 544.429 80.4071 543.98C80.2105 543.531 80.1544 543.334 80.1544 543.334C80.2743 543.533 80.3821 543.74 80.4773 543.952L81.3478 545.777C82.1059 547.42 83.2011 549.806 84.6191 552.797L96.6093 579.024C99.1505 584.541 101.874 590.747 104.935 597.149C105.411 597.88 106.044 598.495 106.787 598.951C107.53 599.408 108.365 599.694 109.231 599.789C111.028 599.873 112.98 599.859 114.847 599.887L126.725 600.027L179.937 600.673H179.74L188.585 595.9L188.754 596.644H188.276L174.896 595.675H174.658L174.559 595.464C167.413 578.251 160.646 561.993 154.524 547.279L153.387 544.541C153.137 543.649 152.652 542.839 151.983 542.197C151.316 541.594 150.465 541.233 149.568 541.172H146.76L135.823 541.074L116.265 540.877L88.087 540.54H83.6784H81.9375C81.6594 540.55 81.3863 540.617 81.1348 540.736C80.8834 540.856 80.6589 541.025 80.475 541.234C80.2911 541.443 80.1516 541.687 80.0651 541.951C79.9786 542.216 79.9469 542.495 79.9719 542.772C80.008 542.967 80.0549 543.159 80.1123 543.348Z" fill="#263238"/>
<path d="M172.861 601.038C172.73 600.855 172.621 600.657 172.538 600.449L171.737 598.736C171.035 597.135 170.081 594.973 168.929 592.362C166.585 586.956 163.398 579.487 159.972 571.175C156.546 562.864 153.513 555.324 151.421 549.834C150.368 547.026 149.54 544.85 149.007 543.292C148.754 542.576 148.557 541.986 148.389 541.495C148.31 541.286 148.254 541.069 148.22 540.849C148.349 541.031 148.453 541.229 148.529 541.439L149.259 543.194C149.919 544.822 150.804 546.998 151.871 549.652C154.145 555.184 157.22 562.653 160.604 570.923C163.987 579.192 167.104 586.633 169.379 592.165L172.004 598.623C172.271 599.34 172.495 599.915 172.678 600.393C172.775 600.596 172.837 600.814 172.861 601.038Z" fill="#263238"/>
<path d="M129.336 569.139C129.339 569.824 129.139 570.493 128.76 571.064C128.382 571.634 127.843 572.079 127.211 572.342C126.579 572.605 125.884 572.674 125.212 572.542C124.541 572.409 123.924 572.08 123.44 571.596C122.957 571.112 122.627 570.495 122.495 569.824C122.362 569.153 122.431 568.457 122.694 567.825C122.958 567.194 123.402 566.654 123.973 566.276C124.543 565.897 125.212 565.697 125.897 565.7C126.809 565.7 127.684 566.062 128.329 566.707C128.974 567.352 129.336 568.227 129.336 569.139Z" fill="white"/>
<path d="M197.641 483.538C197.753 483.538 196.743 485.489 195.324 488.634C191.613 496.844 189.188 505.576 188.136 514.524C187.715 517.964 187.602 520.14 187.476 520.14C187.401 519.637 187.401 519.126 187.476 518.624C187.476 517.655 187.476 516.251 187.673 514.51C188.466 505.449 190.932 496.614 194.945 488.452C195.718 486.893 196.349 485.644 196.897 484.829C197.092 484.37 197.342 483.937 197.641 483.538Z" fill="#263238"/>
<path d="M303.685 521.165C303.435 521.241 303.175 521.284 302.913 521.291L300.681 521.502L292.341 522.204L263.826 524.352H263.461V523.987C263.222 520.196 262.969 516.195 262.717 512.095C262.309 504.935 261.958 498.055 261.846 491.891C261.483 486.339 262.747 480.801 265.482 475.956C267.361 472.688 270.132 470.024 273.471 468.276C274.373 467.824 275.312 467.453 276.279 467.167C276.615 467.062 276.958 466.977 277.304 466.914C277.304 467.027 275.9 467.321 273.583 468.529C270.364 470.337 267.706 473 265.904 476.223C263.302 481.019 262.137 486.464 262.548 491.905C262.688 498.097 263.053 504.921 263.461 512.081C263.713 516.181 263.952 520.182 264.191 523.959L263.798 523.622L292.341 521.74L300.765 521.249L302.997 521.165H303.685Z" fill="#263238"/>
<path d="M233.724 545.482C233.291 545.398 232.874 545.246 232.488 545.033C232.005 544.83 231.536 544.596 231.084 544.331C230.479 544.005 229.893 543.644 229.329 543.25C227.836 542.242 226.456 541.074 225.216 539.768C223.715 538.148 222.396 536.369 221.284 534.461C220.212 532.531 219.359 530.487 218.743 528.367C218.254 526.636 217.953 524.856 217.845 523.06C217.803 522.373 217.803 521.684 217.845 520.996C217.847 520.475 217.884 519.954 217.957 519.438C217.97 518.992 218.055 518.551 218.21 518.132C218.35 518.132 218.111 520.028 218.406 523.018C218.583 524.764 218.926 526.49 219.431 528.171C220.077 530.226 220.928 532.211 221.972 534.096C223.047 535.954 224.313 537.695 225.749 539.29C226.943 540.583 228.255 541.763 229.666 542.814C232.053 544.598 233.794 545.356 233.724 545.482Z" fill="#263238"/>
</svg>
